<svg width="120" height="120" viewBox="0 0 120 120" fill="none" xmlns="http://www.w3.org/2000/svg">
<g clip-path="url(#clip0_401_219)">
<path fill-rule="evenodd" clip-rule="evenodd" d="M120 26.0001V94.0001C120.007 97.4163 119.339 100.8 118.035 103.958C116.731 107.115 114.816 109.984 112.4 112.4C109.984 114.816 107.115 116.731 103.958 118.035C100.8 119.339 97.4163 120.007 94.0001 120H26.0001C22.5838 120.007 19.1998 119.339 16.0422 118.035C12.8847 116.731 10.0157 114.816 7.60005 112.4C5.18437 109.984 3.26949 107.115 1.96528 103.958C0.661078 100.8 -0.0067736 97.4163 5.17919e-05 94.0001V26.0001C-0.0067736 22.5838 0.661078 19.1998 1.96528 16.0422C3.26949 12.8847 5.18437 10.0157 7.60005 7.60005C10.0157 5.18437 12.8847 3.26949 16.0422 1.96528C19.1998 0.661078 22.5838 -0.0067736 26.0001 5.17919e-05H94.0001C97.4163 -0.0067736 100.8 0.661078 103.958 1.96528C107.115 3.26949 109.984 5.18437 112.4 7.60005C114.816 10.0157 116.731 12.8847 118.035 16.0422C119.339 19.1998 120.007 22.5838 120 26.0001Z" fill="url(#paint0_linear_401_219)"/>
<path fill-rule="evenodd" clip-rule="evenodd" d="M82.6 69H97.5C98.9587 69 100.358 69.5795 101.389 70.6109C102.421 71.6424 103 73.0413 103 74.5C103 75.9587 102.421 77.3576 101.389 78.3891C100.358 79.4205 98.9587 80 97.5 80H82.6V69Z" fill="white"/>
<path fill-rule="evenodd" clip-rule="evenodd" d="M64.3 68.9999C65.3392 68.9937 66.3693 69.1938 67.3305 69.5886C68.2918 69.9834 69.1652 70.5651 69.9 71.2999C70.6348 72.0347 71.2165 72.9081 71.6113 73.8694C72.0061 74.8306 72.2062 75.8607 72.2 76.8999C72.204 77.9625 72.0002 79.0156 71.6 79.9999H22.5C21.0413 79.9999 19.6424 79.4204 18.6109 78.389C17.5795 77.3575 17 75.9586 17 74.4999C17 73.0412 17.5795 71.6423 18.6109 70.6108C19.6424 69.5794 21.0413 68.9999 22.5 68.9999H64.3ZM62.9 32.7999V42.3999H56.5L48.7 28.9999C48.3574 28.4089 48.1347 27.7562 48.0445 27.079C47.9544 26.4018 47.9987 25.7136 48.1748 25.0535C48.3509 24.3935 48.6554 23.7747 49.0709 23.2324C49.4864 22.6902 50.0047 22.2352 50.5962 21.8934C51.1877 21.5517 51.8408 21.3299 52.5181 21.2407C53.1954 21.1516 53.8836 21.1968 54.5434 21.3739C55.2032 21.551 55.8215 21.8564 56.3632 22.2727C56.9048 22.6889 57.3591 23.2079 57.7 23.7999L62.9 32.7999ZM68.4 42.0999L95.7 89.3999C96.4293 90.6597 96.6284 92.1576 96.2533 93.5641C95.8782 94.9706 94.9598 96.1706 93.7 96.8999C92.4402 97.6293 90.9423 97.8283 89.5358 97.4532C88.1293 97.0781 86.9293 96.1597 86.2 94.8999L69.7 66.1999C68.2 63.3999 67.1 61.1999 66.4 59.9999C64.7566 57.2001 64.0634 53.9437 64.4239 50.7174C64.7844 47.491 66.1792 44.4679 68.4 42.0999Z" fill="white"/>
<path fill-rule="evenodd" clip-rule="evenodd" d="M46 73.9999H33.3L62 24.2999C62.7293 23.0401 63.9293 22.1217 65.3358 21.7466C66.7423 21.3715 68.2402 21.5706 69.5 22.2999C70.7598 23.0293 71.6782 24.2292 72.0533 25.6357C72.4284 27.0422 72.2293 28.5401 71.5 29.7999L46 73.9999ZM39.3 85.4999L34 94.7999C33.6389 95.4237 33.1584 95.9702 32.586 96.4083C32.0137 96.8464 31.3607 97.1675 30.6642 97.3532C29.9678 97.5389 29.2416 97.5857 28.5271 97.4907C27.8126 97.3958 27.1238 97.1611 26.5 96.7999C25.8762 96.4388 25.3297 95.9583 24.8916 95.386C24.4535 94.8136 24.1324 94.1606 23.9467 93.4641C23.761 92.7677 23.7143 92.0415 23.8092 91.327C23.9041 90.6125 24.1389 89.9237 24.5 89.2999L28.4 82.4999C29.6111 81.8973 30.9473 81.589 32.3 81.5999C33.7109 81.5536 35.1077 81.8921 36.3409 82.5791C37.574 83.2662 38.5969 84.2758 39.3 85.4999Z" fill="white"/>
</g>
<defs>
<linearGradient id="paint0_linear_401_219" x1="59.9991" y1="120" x2="59.9991" y2="5.72205e-05" gradientUnits="userSpaceOnUse">
<stop stop-color="#1D6FF2"/>
<stop offset="1" stop-color="#1AC8FC"/>
</linearGradient>
<clipPath id="clip0_401_219">
<rect width="120" height="120" fill="white"/>
</clipPath>
</defs>
</svg>
