<svg width="120" height="120" viewBox="0 0 120 120" fill="none" xmlns="http://www.w3.org/2000/svg">
<g clip-path="url(#clip0_401_210)">
<path fill-rule="evenodd" clip-rule="evenodd" d="M94.0001 120H26.0001C22.5838 120.007 19.1998 119.339 16.0422 118.035C12.8847 116.731 10.0157 114.816 7.60005 112.4C5.18437 109.984 3.26948 107.115 1.96528 103.958C0.661075 100.8 -0.0067749 97.4163 5.1812e-05 94.0001V26.0001C-0.0067749 22.5838 0.661075 19.1998 1.96528 16.0422C3.26948 12.8847 5.18437 10.0157 7.60005 7.60005C10.0157 5.18437 12.8847 3.26948 16.0422 1.96528C19.1998 0.661075 22.5838 -0.0067749 26.0001 5.1812e-05H94.0001C97.4163 -0.0067749 100.8 0.661075 103.958 1.96528C107.115 3.26948 109.984 5.18437 112.4 7.60005C114.816 10.0157 116.731 12.8847 118.035 16.0422C119.339 19.1998 120.007 22.5838 120 26.0001V94.0001C120.007 97.4163 119.339 100.8 118.035 103.958C116.731 107.115 114.816 109.984 112.4 112.4C109.984 114.816 107.115 116.731 103.958 118.035C100.8 119.339 97.4163 120.007 94.0001 120Z" fill="url(#paint0_linear_401_210)"/>
<path fill-rule="evenodd" clip-rule="evenodd" d="M88 72.4999V75.9999C87.9988 78.2466 87.798 80.4888 87.4 82.6999C87.2058 83.8269 86.787 84.9034 86.1686 85.8654C85.5502 86.8274 84.7447 87.6553 83.8 88.2999H83.7C81.7063 89.8129 79.3001 90.6847 76.8 90.7999L74.9 90.9999C73.4089 91.0913 71.9173 90.8312 70.5451 90.2407C69.1729 89.6501 67.9586 88.7456 67 87.5999C66.0025 86.3915 65.3467 84.9382 65.1005 83.3907C64.8543 81.8433 65.0268 80.2582 65.6 78.7999V78.6999C66.1236 77.2736 66.9906 75.9983 68.1243 74.9867C69.258 73.9751 70.6235 73.2584 72.1 72.8999L79.6 70.8999C80.5434 70.6751 81.3829 70.1377 81.9821 69.3751C82.5813 68.6126 82.9048 67.6697 82.9 66.6999V61.5999V40.0999C82.9068 39.8516 82.8563 39.6052 82.7522 39.3797C82.6481 39.1542 82.4934 38.9558 82.3 38.7999C82.1014 38.6532 81.8738 38.5505 81.6324 38.4988C81.3909 38.4471 81.1413 38.4474 80.9 38.4999L48.9 44.9999C48.3328 45.0906 47.8177 45.3837 47.45 45.8249C47.0823 46.2662 46.8869 46.8257 46.9 47.3999V81.5999V84.0999C46.8988 86.3466 46.698 88.5888 46.3 90.7999C46.1058 91.9269 45.687 93.0034 45.0686 93.9654C44.4502 94.9274 43.6447 95.7553 42.7 96.3999H42.6C40.6063 97.9128 38.2001 98.7846 35.7 98.8999L33.9 98.9999C32.4089 99.0913 30.9173 98.8312 29.5451 98.2407C28.1729 97.6501 26.9586 96.7456 26 95.5999C25.0025 94.3915 24.3467 92.9382 24.1005 91.3907C23.8543 89.8433 24.0268 88.2582 24.6 86.7999V86.6999C25.1236 85.2736 25.9906 83.9983 27.1243 82.9866C28.258 81.975 29.6235 81.2584 31.1 80.8999L38.6 78.8999C39.5434 78.6751 40.3829 78.1377 40.9821 77.3751C41.5813 76.6126 41.9048 75.6697 41.9 74.6999V69.5999V29.8999C41.9111 29.0467 42.2153 28.2233 42.7615 27.5679C43.3078 26.9124 44.0628 26.4647 44.9 26.2999L85 18.9999C85.7371 18.9135 86.4809 19.0906 87.1 19.4999C87.3809 19.7306 87.6073 20.0205 87.7629 20.349C87.9185 20.6775 87.9995 21.0364 88 21.3999V72.4999Z" fill="#BB58BB"/>
<path fill-rule="evenodd" clip-rule="evenodd" d="M88 72.4999V75.9999C87.9988 78.2466 87.798 80.4888 87.4 82.6999C87.2058 83.8269 86.787 84.9034 86.1686 85.8654C85.5502 86.8274 84.7447 87.6553 83.8 88.2999H83.7C81.7063 89.8129 79.3001 90.6847 76.8 90.7999L74.9 90.9999C73.4089 91.0913 71.9173 90.8312 70.5451 90.2407C69.1729 89.6501 67.9586 88.7456 67 87.5999C66.0025 86.3915 65.3467 84.9382 65.1005 83.3907C64.8543 81.8433 65.0268 80.2582 65.6 78.7999V78.6999C66.1236 77.2736 66.9906 75.9983 68.1243 74.9867C69.258 73.9751 70.6235 73.2584 72.1 72.8999L79.6 70.8999C80.5434 70.6751 81.3829 70.1377 81.9821 69.3751C82.5813 68.6126 82.9048 67.6697 82.9 66.6999V61.5999V40.0999C82.9068 39.8516 82.8563 39.6052 82.7522 39.3797C82.6481 39.1542 82.4934 38.9558 82.3 38.7999C82.1014 38.6532 81.8738 38.5505 81.6324 38.4988C81.3909 38.4471 81.1413 38.4474 80.9 38.4999L48.9 44.9999C48.3328 45.0906 47.8177 45.3837 47.45 45.8249C47.0823 46.2662 46.8869 46.8257 46.9 47.3999V81.5999V84.0999C46.8988 86.3466 46.698 88.5888 46.3 90.7999C46.1058 91.9269 45.687 93.0034 45.0686 93.9654C44.4502 94.9274 43.6447 95.7553 42.7 96.3999H42.6C40.6063 97.9128 38.2001 98.7846 35.7 98.8999L33.9 98.9999C32.4089 99.0913 30.9173 98.8312 29.5451 98.2407C28.1729 97.6501 26.9586 96.7456 26 95.5999C25.0025 94.3915 24.3467 92.9382 24.1005 91.3907C23.8543 89.8433 24.0268 88.2582 24.6 86.7999V86.6999C25.1236 85.2736 25.9906 83.9983 27.1243 82.9866C28.258 81.975 29.6235 81.2584 31.1 80.8999L38.6 78.8999C39.5434 78.6751 40.3829 78.1377 40.9821 77.3751C41.5813 76.6126 41.9048 75.6697 41.9 74.6999V69.5999V29.8999C41.9111 29.0467 42.2153 28.2233 42.7615 27.5679C43.3078 26.9124 44.0628 26.4647 44.9 26.2999L85 18.9999C85.7371 18.9135 86.4809 19.0906 87.1 19.4999C87.3809 19.7306 87.6073 20.0205 87.7629 20.349C87.9185 20.6775 87.9995 21.0364 88 21.3999V72.4999Z" fill="url(#paint1_radial_401_210)"/>
<path fill-rule="evenodd" clip-rule="evenodd" d="M88 72.4999V75.9999C87.9988 78.2466 87.798 80.4888 87.4 82.6999C87.2058 83.8269 86.787 84.9034 86.1686 85.8654C85.5502 86.8274 84.7447 87.6553 83.8 88.2999H83.7C81.7063 89.8129 79.3001 90.6847 76.8 90.7999L74.9 90.9999C73.4089 91.0913 71.9173 90.8312 70.5451 90.2407C69.1729 89.6501 67.9586 88.7456 67 87.5999C66.0025 86.3915 65.3467 84.9382 65.1005 83.3907C64.8543 81.8433 65.0268 80.2582 65.6 78.7999V78.6999C66.1236 77.2736 66.9906 75.9983 68.1243 74.9867C69.258 73.9751 70.6235 73.2584 72.1 72.8999L79.6 70.8999C80.5434 70.6751 81.3829 70.1377 81.9821 69.3751C82.5813 68.6126 82.9048 67.6697 82.9 66.6999V61.5999V40.0999C82.9068 39.8516 82.8563 39.6052 82.7522 39.3797C82.6481 39.1542 82.4934 38.9558 82.3 38.7999C82.1014 38.6532 81.8738 38.5505 81.6324 38.4988C81.3909 38.4471 81.1413 38.4474 80.9 38.4999L48.9 44.9999C48.3328 45.0906 47.8177 45.3837 47.45 45.8249C47.0823 46.2662 46.8869 46.8257 46.9 47.3999V81.5999V84.0999C46.8988 86.3466 46.698 88.5888 46.3 90.7999C46.1058 91.9269 45.687 93.0034 45.0686 93.9654C44.4502 94.9274 43.6447 95.7553 42.7 96.3999H42.6C40.6063 97.9128 38.2001 98.7846 35.7 98.8999L33.9 98.9999C32.4089 99.0913 30.9173 98.8312 29.5451 98.2407C28.1729 97.6501 26.9586 96.7456 26 95.5999C25.0025 94.3915 24.3467 92.9382 24.1005 91.3907C23.8543 89.8433 24.0268 88.2582 24.6 86.7999V86.6999C25.1236 85.2736 25.9906 83.9983 27.1243 82.9866C28.258 81.975 29.6235 81.2584 31.1 80.8999L38.6 78.8999C39.5434 78.6751 40.3829 78.1377 40.9821 77.3751C41.5813 76.6126 41.9048 75.6697 41.9 74.6999V69.5999V29.8999C41.9111 29.0467 42.2153 28.2233 42.7615 27.5679C43.3078 26.9124 44.0628 26.4647 44.9 26.2999L85 18.9999C85.7371 18.9135 86.4809 19.0906 87.1 19.4999C87.3809 19.7306 87.6073 20.0205 87.7629 20.349C87.9185 20.6775 87.9995 21.0364 88 21.3999V72.4999Z" fill="url(#paint2_radial_401_210)"/>
<path fill-rule="evenodd" clip-rule="evenodd" d="M88 72.4999V75.9999C87.9988 78.2466 87.798 80.4888 87.4 82.6999C87.2058 83.8269 86.787 84.9034 86.1686 85.8654C85.5502 86.8274 84.7447 87.6553 83.8 88.2999H83.7C81.7063 89.8129 79.3001 90.6847 76.8 90.7999L74.9 90.9999C73.4089 91.0913 71.9173 90.8312 70.5451 90.2407C69.1729 89.6501 67.9586 88.7456 67 87.5999C66.0025 86.3915 65.3467 84.9382 65.1005 83.3907C64.8543 81.8433 65.0268 80.2582 65.6 78.7999V78.6999C66.1236 77.2736 66.9906 75.9983 68.1243 74.9867C69.258 73.9751 70.6235 73.2584 72.1 72.8999L79.6 70.8999C80.5434 70.6751 81.3829 70.1377 81.9821 69.3751C82.5813 68.6126 82.9048 67.6697 82.9 66.6999V61.5999V40.0999C82.9068 39.8516 82.8563 39.6052 82.7522 39.3797C82.6481 39.1542 82.4934 38.9558 82.3 38.7999C82.1014 38.6532 81.8738 38.5505 81.6324 38.4988C81.3909 38.4471 81.1413 38.4474 80.9 38.4999L48.9 44.9999C48.3328 45.0906 47.8177 45.3837 47.45 45.8249C47.0823 46.2662 46.8869 46.8257 46.9 47.3999V81.5999V84.0999C46.8988 86.3466 46.698 88.5888 46.3 90.7999C46.1058 91.9269 45.687 93.0034 45.0686 93.9654C44.4502 94.9274 43.6447 95.7553 42.7 96.3999H42.6C40.6063 97.9128 38.2001 98.7846 35.7 98.8999L33.9 98.9999C32.4089 99.0913 30.9173 98.8312 29.5451 98.2407C28.1729 97.6501 26.9586 96.7456 26 95.5999C25.0025 94.3915 24.3467 92.9382 24.1005 91.3907C23.8543 89.8433 24.0268 88.2582 24.6 86.7999V86.6999C25.1236 85.2736 25.9906 83.9983 27.1243 82.9866C28.258 81.975 29.6235 81.2584 31.1 80.8999L38.6 78.8999C39.5434 78.6751 40.3829 78.1377 40.9821 77.3751C41.5813 76.6126 41.9048 75.6697 41.9 74.6999V69.5999V29.8999C41.9111 29.0467 42.2153 28.2233 42.7615 27.5679C43.3078 26.9124 44.0628 26.4647 44.9 26.2999L85 18.9999C85.7371 18.9135 86.4809 19.0906 87.1 19.4999C87.3809 19.7306 87.6073 20.0205 87.7629 20.349C87.9185 20.6775 87.9995 21.0364 88 21.3999V72.4999Z" fill="url(#paint3_linear_401_210)"/>
<path fill-rule="evenodd" clip-rule="evenodd" d="M88 72.4999V75.9999C87.9988 78.2466 87.798 80.4888 87.4 82.6999C87.2058 83.8269 86.787 84.9034 86.1686 85.8654C85.5502 86.8274 84.7447 87.6553 83.8 88.2999H83.7C81.7063 89.8129 79.3001 90.6847 76.8 90.7999L74.9 90.9999C73.4089 91.0913 71.9173 90.8312 70.5451 90.2407C69.1729 89.6501 67.9586 88.7456 67 87.5999C66.0025 86.3915 65.3467 84.9382 65.1005 83.3907C64.8543 81.8433 65.0268 80.2582 65.6 78.7999V78.6999C66.1236 77.2736 66.9906 75.9983 68.1243 74.9867C69.258 73.9751 70.6235 73.2584 72.1 72.8999L79.6 70.8999C80.5434 70.6751 81.3829 70.1377 81.9821 69.3751C82.5813 68.6126 82.9048 67.6697 82.9 66.6999V61.5999V40.0999C82.9068 39.8516 82.8563 39.6052 82.7522 39.3797C82.6481 39.1542 82.4934 38.9558 82.3 38.7999C82.1014 38.6532 81.8738 38.5505 81.6324 38.4988C81.3909 38.4471 81.1413 38.4474 80.9 38.4999L48.9 44.9999C48.3328 45.0906 47.8177 45.3837 47.45 45.8249C47.0823 46.2662 46.8869 46.8257 46.9 47.3999V81.5999V84.0999C46.8988 86.3466 46.698 88.5888 46.3 90.7999C46.1058 91.9269 45.687 93.0034 45.0686 93.9654C44.4502 94.9274 43.6447 95.7553 42.7 96.3999H42.6C40.6063 97.9128 38.2001 98.7846 35.7 98.8999L33.9 98.9999C32.4089 99.0913 30.9173 98.8312 29.5451 98.2407C28.1729 97.6501 26.9586 96.7456 26 95.5999C25.0025 94.3915 24.3467 92.9382 24.1005 91.3907C23.8543 89.8433 24.0268 88.2582 24.6 86.7999V86.6999C25.1236 85.2736 25.9906 83.9983 27.1243 82.9866C28.258 81.975 29.6235 81.2584 31.1 80.8999L38.6 78.8999C39.5434 78.6751 40.3829 78.1377 40.9821 77.3751C41.5813 76.6126 41.9048 75.6697 41.9 74.6999V69.5999V29.8999C41.9111 29.0467 42.2153 28.2233 42.7615 27.5679C43.3078 26.9124 44.0628 26.4647 44.9 26.2999L85 18.9999C85.7371 18.9135 86.4809 19.0906 87.1 19.4999C87.3809 19.7306 87.6073 20.0205 87.7629 20.349C87.9185 20.6775 87.9995 21.0364 88 21.3999V72.4999Z" fill="white"/>
</g>
<defs>
<linearGradient id="paint0_linear_401_210" x1="60.0001" y1="120" x2="60.0001" y2="5.72205e-05" gradientUnits="userSpaceOnUse">
<stop stop-color="#FD355A"/>
<stop offset="1" stop-color="#FD5163"/>
</linearGradient>
<radialGradient id="paint1_radial_401_210" cx="0" cy="0" r="1" gradientUnits="userSpaceOnUse" gradientTransform="translate(37.62 90.3883) rotate(90) scale(50.6131)">
<stop stop-color="#7470F9"/>
<stop offset="1" stop-color="#7A70FE" stop-opacity="0"/>
</radialGradient>
<radialGradient id="paint2_radial_401_210" cx="0" cy="0" r="1" gradientUnits="userSpaceOnUse" gradientTransform="translate(77.5512 78.8359) rotate(-105.538) scale(40.854 40.854)">
<stop stop-color="#4CA3F8"/>
<stop offset="0.362" stop-color="#4CA4F7"/>
<stop offset="1" stop-color="#4AA2F9" stop-opacity="0"/>
</radialGradient>
<linearGradient id="paint3_linear_401_210" x1="48.3018" y1="34.3839" x2="65.9269" y2="66.3808" gradientUnits="userSpaceOnUse">
<stop stop-color="#FF6380"/>
<stop offset="1" stop-color="#F65E79" stop-opacity="0"/>
</linearGradient>
<clipPath id="clip0_401_210">
<rect width="120" height="120" fill="white"/>
</clipPath>
</defs>
</svg>
