<svg width="120" height="120" viewBox="0 0 120 120" fill="none" xmlns="http://www.w3.org/2000/svg">
<path fill-rule="evenodd" clip-rule="evenodd" d="M91.4062 0C108.75 0 120 11.25 120 28.5938V91.4062C120 108.75 108.75 120 91.4062 120H28.5938C11.25 120 0 108.75 0 91.4062V28.5938C0 11.25 11.25 0 28.5938 0H91.4062Z" fill="url(#paint0_linear_401_262)"/>
<path fill-rule="evenodd" clip-rule="evenodd" d="M27.1753 52.0986C22.7044 43.9929 21 37.4583 21 33.0447C21 28.631 22.0844 27.3651 23.1848 26.3425C24.2851 25.3198 29.247 22.2607 30.0924 21.6901C30.9379 21.1196 34.1646 20.0109 36.1881 22.9217C38.2116 25.8326 42.0221 31.677 44.6492 35.5595C48.7717 41.0588 45.4874 43.4729 44.4266 44.9198C42.4745 47.5823 41.3505 48.239 41.3505 51.5084C41.3505 54.7778 50.4875 64.0662 52.6722 66.3547C54.8404 68.6259 63.9446 76.607 66.7657 77.0338C69.6066 77.4636 73.4098 74.4559 74.2184 73.6932C78.3319 70.535 80.6539 72.9294 82.5487 73.9701C84.4434 75.0109 93.0043 80.3454 95.6573 82.1436C98.1541 83.9417 97.9981 86.7207 97.9981 86.7207C97.9981 86.7207 92.8483 94.8941 92.2241 95.8749C91.4438 97.0192 89.5711 98 85.3577 98C81.1442 98 76.6423 97.2304 65.9433 91.3464C57.189 86.5319 48.8437 78.9927 44.4742 74.579C39.9486 70.1654 32.2823 61.3575 27.1753 52.0986Z" fill="white"/>
<defs>
<linearGradient id="paint0_linear_401_262" x1="0" y1="0" x2="0" y2="120" gradientUnits="userSpaceOnUse">
<stop stop-color="#64FA7E"/>
<stop offset="1" stop-color="#0CBA29"/>
</linearGradient>
</defs>
</svg>
